<?xml version="1.0" encoding="iso-8859-1"?>
<!-- Uploaded to: SVG Repo, www.svgrepo.com, Generator: SVG Repo Mixer Tools -->
<svg fill="#000000" version="1.1" id="Capa_1" xmlns="http://www.w3.org/2000/svg" xmlns:xlink="http://www.w3.org/1999/xlink" 
	 viewBox="0 0 60 60" xml:space="preserve">
<g>
	<g>
		<path d="M57,12H42V8h2c0.6,0,1-0.4,1-1V3c0-0.6-0.4-1-1-1H16c-0.6,0-1,0.4-1,1v4c0,0.6,0.4,1,1,1h2v4H3c-1.7,0-3,1.3-3,3v16
			c0,0.6,0.4,1,1,1h3v5h2v-5h16v3c0,0.6,0.4,1,1,1h14c0.6,0,1-0.4,1-1v-3h16v5h2v-5h3c0.6,0,1-0.4,1-1V15C60,13.3,58.7,12,57,12z
			 M17,4h26v2H17V4z M20,8h20v4H20V8z M36,34H24v-6h12V34z M58,30h-3H38v-3c0-0.6-0.4-1-1-1H23c-0.6,0-1,0.4-1,1v3H5H2V15
			c0-0.6,0.4-1,1-1h16h22h16c0.6,0,1,0.4,1,1V30z"/>
		<path d="M54,56H6v-2H4v3c0,0.6,0.4,1,1,1h50c0.6,0,1-0.4,1-1v-3h-2V56z"/>
		<path d="M59,43h-3v-3c0-0.6-0.4-1-1-1H25v2h29v2h-6H10c-0.2,0-0.5,0.1-0.6,0.2l-8.7,2.9C0.3,46.2,0,46.6,0,47s0.3,0.8,0.7,0.9
			l8.7,2.9c0.1,0.1,0.3,0.1,0.4,0.2c0.1,0,0.1,0,0.2,0h38h11c0.6,0,1-0.4,1-1v-6C60,43.4,59.6,43,59,43z M9,45.4v3.2L4.2,47L9,45.4z
			 M11,45h36v4H11V45z M49,45h2v4h-2V45z M58,49h-5v-4h5V49z"/>
		<rect x="26" y="30" width="8" height="2"/>
	</g>
</g>
</svg>